<?xml version="1.0" encoding="UTF-8"?>
<!-- NODO Monochrome - For printing, single-color applications -->
<svg width="400" height="400" viewBox="0 0 400 400" xmlns="http://www.w3.org/2000/svg">
  <!-- White version (use fill="#000000" for black version) -->

  <g id="nodo-mono">

    <!-- Central node -->
    <circle cx="200" cy="200" r="12" fill="#FFFFFF"/>

    <!-- Connection lines -->
    <path d="M 200 200 Q 180 150 160 130"
          fill="none"
          stroke="#FFFFFF"
          stroke-width="2.5"
          stroke-linecap="round"/>
    <circle cx="160" cy="130" r="7" fill="#FFFFFF"/>

    <path d="M 200 200 Q 200 160 200 120"
          fill="none"
          stroke="#FFFFFF"
          stroke-width="3"
          stroke-linecap="round"/>
    <circle cx="200" cy="120" r="8" fill="#FFFFFF"/>

    <path d="M 200 200 Q 220 150 240 130"
          fill="none"
          stroke="#FFFFFF"
          stroke-width="2.5"
          stroke-linecap="round"/>
    <circle cx="240" cy="130" r="7" fill="#FFFFFF"/>

    <path d="M 200 200 Q 250 190 280 180"
          fill="none"
          stroke="#FFFFFF"
          stroke-width="2.5"
          stroke-linecap="round"/>
    <circle cx="280" cy="180" r="6" fill="#FFFFFF"/>

    <path d="M 200 200 Q 260 210 290 220"
          fill="none"
          stroke="#FFFFFF"
          stroke-width="2"
          stroke-linecap="round"/>
    <circle cx="290" cy="220" r="5" fill="#FFFFFF"/>

    <path d="M 200 200 Q 220 250 240 280"
          fill="none"
          stroke="#FFFFFF"
          stroke-width="2.5"
          stroke-linecap="round"/>
    <circle cx="240" cy="280" r="7" fill="#FFFFFF"/>

    <path d="M 200 200 Q 200 240 200 280"
          fill="none"
          stroke="#FFFFFF"
          stroke-width="3"
          stroke-linecap="round"/>
    <circle cx="200" cy="280" r="8" fill="#FFFFFF"/>

    <path d="M 200 200 Q 180 250 160 280"
          fill="none"
          stroke="#FFFFFF"
          stroke-width="2.5"
          stroke-linecap="round"/>
    <circle cx="160" cy="280" r="7" fill="#FFFFFF"/>

    <path d="M 200 200 Q 140 210 110 220"
          fill="none"
          stroke="#FFFFFF"
          stroke-width="2"
          stroke-linecap="round"/>
    <circle cx="110" cy="220" r="5" fill="#FFFFFF"/>

    <path d="M 200 200 Q 150 190 120 180"
          fill="none"
          stroke="#FFFFFF"
          stroke-width="2.5"
          stroke-linecap="round"/>
    <circle cx="120" cy="180" r="6" fill="#FFFFFF"/>

  </g>

  <!-- Text: NODO -->
  <text x="200" y="355"
        font-family="Arial, Helvetica, sans-serif"
        font-size="64"
        font-weight="600"
        fill="#FFFFFF"
        text-anchor="middle"
        letter-spacing="10">NODO</text>

</svg>
